<?xml version="1.0" standalone="no"?>
<!DOCTYPE svg PUBLIC "-//W3C//DTD SVG 20010904//EN"
 "http://www.w3.org/TR/2001/REC-SVG-20010904/DTD/svg10.dtd">
<svg version="1.0" xmlns="http://www.w3.org/2000/svg"
 width="129.000000pt" height="129.000000pt" viewBox="0 0 129.000000 129.000000"
 preserveAspectRatio="xMidYMid meet">
<metadata>
Created by potrace 1.14, written by Peter Selinger 2001-2017
</metadata>
<g transform="translate(0.000000,129.000000) scale(0.100000,-0.100000)"
fill="#000000" stroke="none">
<path d="M461 983 c-18 -87 -35 -166 -37 -175 -5 -15 1 -18 34 -18 40 0 40 0
47 48 5 33 16 57 38 80 17 17 34 32 39 32 4 0 26 -36 48 -80 40 -80 40 -80 80
-80 22 0 40 3 40 6 0 3 -25 51 -55 106 l-56 100 48 41 c26 23 61 54 78 69 l30
27 -48 1 c-46 0 -52 -3 -125 -70 -43 -38 -78 -66 -80 -62 -1 5 4 36 12 70 l14
62 -37 0 -38 0 -32 -157z"/>
<path d="M848 1109 c-5 -29 -4 -30 31 -27 31 3 36 7 39 31 3 25 1 27 -31 27
-31 0 -35 -3 -39 -31z"/>
<path d="M808 914 l-25 -125 35 3 36 3 22 105 c31 142 31 140 -10 140 l-33 0
-25 -126z"/>
<path d="M402 636 c-48 -68 -58 -87 -48 -96 11 -8 27 8 75 75 33 47 61 90 61
95 0 30 -35 0 -88 -74z"/>
<path d="M777 713 c-8 -13 113 -173 130 -173 21 0 13 18 -49 105 -49 69 -70
86 -81 68z"/>
<path d="M207 506 c-137 -51 -185 -267 -75 -336 27 -17 46 -20 103 -18 39 2
86 11 106 21 33 16 37 23 47 81 7 35 12 68 12 75 0 7 -27 11 -80 11 l-80 0 0
-30 c0 -28 2 -30 41 -30 36 0 40 -2 37 -22 -6 -46 -118 -67 -152 -29 -44 48
-20 168 40 207 43 29 102 24 128 -9 16 -19 31 -27 54 -27 18 0 32 3 32 8 0 16
-40 72 -63 86 -34 23 -106 29 -150 12z"/>
<path d="M1007 506 c-102 -38 -162 -169 -123 -271 46 -120 229 -114 302 10 51
88 40 199 -26 247 -34 25 -106 31 -153 14z m107 -64 c4 -2 14 -19 22 -38 33
-79 -32 -194 -110 -194 -81 1 -106 86 -52 184 30 55 91 76 140 48z"/>
</g>
</svg>
